<?xml version="1.0" standalone="no"?>
<!DOCTYPE svg PUBLIC "-//W3C//DTD SVG 20010904//EN"
 "http://www.w3.org/TR/2001/REC-SVG-20010904/DTD/svg10.dtd">
<svg version="1.0" xmlns="http://www.w3.org/2000/svg"
 width="1024.000000pt" height="1024.000000pt" viewBox="0 0 1024.000000 1024.000000"
 preserveAspectRatio="xMidYMid meet">

<g transform="translate(0.000000,1024.000000) scale(0.100000,-0.100000)"
fill="#000000" stroke="none">
<path d="M7080 9423 c309 -2 452 -6 467 -14 15 -8 21 -20 21 -40 -1 -16 -6
-29 -11 -29 -6 0 -2 -7 9 -15 15 -12 16 -16 5 -24 -7 -4 -9 -11 -4 -14 5 -3
15 2 23 13 13 19 45 16 33 -3 -4 -6 0 -8 9 -5 8 4 21 3 28 -2 15 -9 5 -30 -16
-30 -8 0 -14 -4 -14 -10 0 -18 28 -11 44 11 8 12 19 18 25 14 6 -3 11 -1 11 6
0 8 3 9 13 0 8 -6 17 -7 22 -3 4 4 2 -3 -6 -15 -7 -12 -10 -26 -6 -30 5 -4 12
-1 16 6 6 8 11 9 15 3 3 -6 2 -14 -4 -17 -6 -4 -8 -15 -5 -24 8 -27 -4 -51
-26 -51 -10 0 -19 -4 -19 -10 0 -5 6 -9 13 -7 6 1 11 -3 10 -10 -2 -7 4 -10
12 -7 8 4 15 11 15 18 0 6 4 5 10 -4 5 -8 24 -15 42 -15 25 -1 32 -5 30 -18
-2 -9 2 -17 8 -17 5 0 9 3 9 8 -3 19 2 32 14 32 7 0 13 -11 12 -27 0 -14 6
-28 13 -31 11 -3 12 0 3 16 -10 18 -8 21 9 19 13 -1 19 -6 15 -15 -2 -7 0 -10
5 -7 6 3 10 15 10 26 0 10 4 19 10 19 5 0 9 -10 7 -22 -2 -19 2 -23 26 -21 15
1 27 -3 27 -8 0 -6 -4 -7 -10 -4 -5 3 -10 1 -10 -4 0 -6 5 -11 11 -11 5 0 7
-4 4 -10 -3 -5 -1 -10 4 -10 6 0 11 7 11 16 0 8 5 12 11 9 6 -4 8 -9 5 -12 -8
-8 42 -45 52 -39 4 2 14 1 22 -4 8 -5 22 -4 33 2 11 5 17 6 14 1 -10 -16 7
-30 108 -89 91 -52 172 -106 249 -166 16 -13 68 -61 116 -108 276 -271 450
-664 452 -1022 0 -35 -2 -74 -6 -85 -4 -12 -3 -24 2 -27 8 -5 3 -52 -12 -125
-3 -14 -2 -29 2 -35 14 -19 11 -54 -5 -60 -8 -4 -13 -12 -10 -19 2 -6 0 -21
-5 -32 -8 -18 -8 -18 -4 3 4 19 2 21 -10 12 -10 -9 -11 -17 -4 -31 8 -15 7
-17 -4 -13 -23 9 -39 -5 -25 -22 9 -11 8 -14 -5 -14 -9 0 -16 6 -16 13 0 7 -7
4 -15 -7 -18 -24 -20 -45 -3 -28 14 14 38 16 38 2 0 -5 -7 -7 -15 -4 -14 6
-20 -6 -16 -30 1 -5 -5 -6 -13 -3 -10 4 -13 1 -9 -9 6 -17 15 -18 30 -3 16 16
25 -5 13 -35 -5 -14 -15 -26 -22 -26 -9 0 -9 3 -2 8 15 10 25 42 14 42 -6 0
-10 -7 -10 -15 0 -8 -7 -15 -15 -15 -19 0 -19 -14 0 -33 12 -13 11 -15 -9 -13
-18 1 -22 6 -19 26 2 17 -1 14 -9 -10 -7 -19 -19 -35 -25 -36 -48 -4 -48 -3
-23 -29 13 -14 18 -25 12 -25 -7 0 -12 5 -12 10 0 17 -25 11 -38 -10 -7 -11
-21 -20 -32 -20 -11 0 -20 -6 -20 -12 0 -7 -7 -4 -16 7 -14 18 -14 17 -9 -20
5 -36 4 -38 -8 -22 -17 21 -49 13 -40 -11 5 -11 2 -14 -10 -9 -9 3 -17 2 -17
-2 0 -5 -9 -7 -20 -4 -21 5 -28 33 -9 33 5 0 8 4 4 10 -3 5 -12 7 -20 3 -10
-3 -15 1 -15 12 0 10 -5 15 -13 12 -8 -3 -20 -1 -27 3 -8 5 -18 6 -24 3 -5 -4
-1 -10 10 -13 12 -5 3 -7 -26 -8 -36 0 -40 2 -22 9 27 10 29 23 2 14 -11 -3
-20 -2 -20 3 0 6 11 13 25 16 24 6 35 26 14 26 -5 0 -7 5 -3 12 4 6 -3 4 -16
-5 -14 -9 -33 -14 -46 -11 -15 4 -29 -1 -42 -14 -11 -11 -26 -22 -33 -25 -8
-3 -1 -6 14 -6 16 -1 26 3 22 8 -9 15 16 25 26 10 8 -12 11 -12 19 1 7 11 10
4 10 -27 0 -43 -6 -49 -48 -44 -7 1 -15 -5 -18 -13 -7 -18 -24 -11 -24 9 0 10
9 14 29 11 41 -5 59 8 42 28 -10 11 -18 13 -31 6 -27 -15 -66 -12 -84 5 -9 9
-17 11 -21 5 -3 -5 -11 -10 -16 -10 -6 0 -8 4 -4 9 3 5 1 12 -4 15 -14 9 -23
-25 -10 -40 10 -12 8 -13 -6 -8 -13 5 -16 4 -11 -4 4 -7 14 -12 22 -12 9 0 22
-7 31 -15 13 -14 11 -16 -16 -21 -17 -4 -29 -10 -26 -14 7 -12 -55 -61 -67
-54 -7 4 -8 3 -4 -4 4 -7 2 -12 -4 -12 -6 0 -15 -10 -19 -22 -9 -22 -9 -22
-17 -3 -16 39 -74 82 -94 70 -17 -11 -11 7 8 22 15 12 11 13 -30 9 -37 -3 -46
-1 -42 9 3 8 19 17 35 20 16 4 41 19 55 35 15 15 33 26 41 23 13 -5 15 1 17
70 1 30 -1 34 -10 22 -7 -9 -18 -13 -28 -9 -12 5 -15 2 -9 -12 3 -9 2 -15 -3
-12 -5 3 -19 2 -32 -3 -18 -7 -21 -13 -14 -26 5 -10 6 -27 1 -38 -4 -11 -8
-14 -8 -7 -1 21 -31 13 -31 -8 0 -24 -13 -26 -34 -4 -15 14 -16 14 -16 -1 0
-11 -5 -15 -16 -11 -12 4 -14 1 -9 -14 5 -17 2 -20 -24 -20 -20 0 -30 5 -29
13 2 7 -9 13 -27 14 -20 1 -23 0 -7 -4 24 -5 32 -46 11 -58 -6 -5 -2 -13 11
-22 15 -11 20 -23 18 -46 -2 -26 -8 -33 -30 -35 -22 -3 -30 2 -40 25 -7 15
-18 34 -25 41 -17 17 -16 40 1 74 12 23 12 26 -1 21 -8 -3 -19 0 -25 8 -7 10
-8 8 -3 -8 5 -17 2 -23 -8 -23 -9 0 -17 -6 -20 -12 -3 -10 -7 -10 -20 1 -18
14 -22 36 -9 44 4 2 2 3 -4 1 -6 -1 -17 3 -24 9 -10 9 -11 8 -6 -8 88 -304
105 -607 50 -935 l-7 -45 31 35 32 34 34 -37 c18 -20 38 -37 44 -37 5 0 -11
-22 -37 -48 -38 -41 -48 -46 -55 -33 -5 9 -15 20 -23 24 -7 4 -13 15 -13 22 0
30 -20 14 -30 -25 -5 -22 -15 -58 -20 -80 -33 -125 -146 -360 -248 -515 -100
-151 -283 -347 -429 -458 -155 -118 -371 -231 -563 -293 -63 -20 -116 -38
-118 -40 -10 -8 79 -84 99 -85 22 0 21 -2 -6 -12 -35 -14 -95 -72 -95 -92 0
-8 -4 -17 -10 -20 -5 -3 -10 3 -10 13 0 11 -11 27 -24 36 -14 8 -27 24 -31 35
-5 16 -18 22 -56 27 -39 5 -50 11 -55 28 -5 21 -8 22 -254 21 l-249 0 29 -26
c16 -15 46 -30 67 -35 38 -8 38 -8 8 -12 -36 -5 -102 -72 -114 -116 l-8 -31
-8 35 c-4 19 -18 42 -31 52 -12 10 -26 27 -29 38 -4 14 -16 20 -38 21 l-32 1
35 12 c20 6 51 23 70 38 39 31 40 31 -70 48 -41 6 -85 13 -97 17 -17 4 -23 1
-23 -12 0 -10 -6 -15 -17 -13 -10 2 -18 12 -18 23 0 13 -10 21 -35 27 -132 33
-370 140 -505 226 -149 96 -355 270 -355 301 0 12 147 111 165 111 6 0 24 -14
41 -31 16 -18 74 -67 129 -110 55 -44 105 -83 112 -89 7 -5 15 -10 18 -10 3 0
22 -11 43 -23 20 -13 71 -41 112 -61 41 -21 86 -44 100 -51 14 -7 72 -27 130
-44 58 -18 119 -36 135 -41 45 -14 227 -38 340 -45 284 -19 646 71 920 229
101 58 115 69 115 91 0 30 23 47 53 40 20 -5 38 5 101 60 42 36 76 72 76 78
-1 22 -38 57 -62 58 -23 0 -23 0 -2 9 28 11 73 57 84 84 8 21 8 21 16 1 8 -23
39 -55 52 -55 10 0 96 113 145 191 50 78 122 218 137 265 7 21 16 44 20 49 10
15 47 139 69 235 64 273 49 603 -38 877 -17 50 -39 109 -50 130 l-20 38 0 -40
c-1 -22 5 -52 12 -66 8 -14 17 -45 21 -69 4 -24 12 -50 18 -57 6 -8 8 -32 4
-60 -5 -41 -4 -45 7 -29 12 16 15 17 20 3 3 -8 -1 -21 -8 -27 -8 -7 -12 -16
-9 -21 3 -5 0 -9 -5 -9 -6 0 -10 -3 -10 -7 3 -19 -2 -27 -10 -14 -6 9 -11 10
-15 2 -4 -6 -2 -11 3 -11 6 0 11 -9 11 -20 0 -11 -4 -20 -10 -20 -5 0 -10 -6
-10 -14 0 -8 -8 -17 -18 -20 -11 -4 -25 -18 -32 -31 -7 -14 -16 -23 -18 -20
-3 2 -13 -5 -23 -16 -16 -19 -19 -20 -25 -5 -7 18 -35 21 -51 5 -7 -7 -10 -3
-10 15 0 14 4 26 10 26 6 0 8 2 5 5 -10 10 -39 -8 -34 -21 6 -17 -13 -18 -34
-3 -12 9 -12 10 4 5 13 -5 17 -2 12 9 -3 9 0 15 8 15 8 0 13 8 11 18 -2 9 -4
19 -4 22 -1 3 -6 -2 -11 -10 -7 -11 -10 -11 -10 -2 0 7 -4 11 -9 8 -15 -10
-43 6 -37 20 3 8 1 14 -4 14 -5 0 -13 19 -17 43 -6 33 -9 15 -14 -88 -8 -150
-23 -204 -98 -335 -27 -47 -54 -103 -61 -124 -19 -60 -8 -180 25 -257 15 -35
29 -74 32 -86 l5 -23 -252 0 -252 0 6 23 c26 89 30 129 15 155 -14 26 -19 27
-99 30 -71 2 -88 6 -108 25 -22 20 -23 28 -18 78 5 48 2 59 -15 75 -16 14 -19
25 -14 59 l7 40 -53 23 c-29 12 -54 20 -57 18 -8 -9 32 -65 55 -75 17 -8 23
-19 24 -46 1 -19 3 -39 4 -45 1 -5 3 -38 4 -71 1 -57 4 -64 40 -101 26 -25 38
-45 35 -56 -5 -15 -3 -14 9 1 18 22 50 19 55 -6 3 -12 -3 -17 -22 -17 -27 0
-36 -15 -13 -23 7 -2 8 -8 3 -13 -5 -5 -11 -4 -13 4 -3 6 -13 12 -23 12 -10 0
-20 5 -22 12 -3 8 -9 8 -24 0 -17 -10 -17 -11 -1 -12 9 0 17 -5 17 -11 0 -7
-9 -9 -23 -5 -16 4 -31 -2 -50 -19 -32 -30 -37 -31 -37 -5 0 11 -5 20 -10 20
-6 0 -10 -6 -9 -12 1 -7 -1 -21 -6 -31 -6 -15 -10 -16 -16 -5 -7 11 -12 11
-30 0 -17 -11 -23 -11 -29 -1 -6 8 -9 6 -13 -7 -4 -17 -5 -17 -6 -1 0 10 -6
15 -11 12 -6 -4 -8 -11 -5 -16 4 -5 2 -9 -4 -9 -5 0 -12 6 -14 13 -3 7 -6 5
-6 -5 -1 -25 -32 -22 -38 3 -6 20 -6 20 -17 -2 -6 -12 -17 -24 -25 -27 -8 -3
-11 0 -7 6 13 22 -16 23 -39 2 -15 -14 -25 -18 -30 -11 -8 14 -45 14 -45 0 0
-5 5 -7 12 -3 7 4 8 3 4 -4 -5 -9 -13 -9 -26 -2 -16 8 -18 7 -14 -4 3 -8 0
-17 -7 -22 -8 -4 -10 -3 -5 4 9 14 -6 16 -20 3 -5 -6 -29 -11 -54 -13 l-44 -3
55 -38 c30 -21 89 -51 130 -67 187 -72 362 -65 536 24 46 23 65 26 148 26 52
0 95 -4 95 -8 0 -20 -127 -110 -205 -146 -231 -107 -476 -100 -708 21 -48 25
-100 65 -157 120 l-84 83 -209 -1 c-115 0 -211 2 -213 4 -2 2 70 49 161 106
90 56 177 117 193 136 51 58 91 191 72 238 -7 17 -9 9 -9 -32 -2 -106 -35
-146 -216 -257 -44 -27 -84 -52 -90 -57 -17 -13 -139 -89 -330 -203 -99 -60
-234 -143 -300 -184 -66 -42 -250 -157 -410 -255 -159 -98 -366 -225 -460
-283 -229 -142 -248 -151 -318 -152 -77 0 -129 27 -168 87 l-29 47 0 322 0
322 -42 -5 c-60 -8 -88 -20 -88 -38 0 -8 -9 -15 -20 -15 -11 0 -20 6 -20 13 0
8 -7 14 -15 14 -18 0 -19 -9 -4 -24 8 -8 8 -13 0 -17 -6 -4 -11 -2 -11 4 0 6
-5 8 -12 4 -8 -5 -9 -2 -5 9 4 11 1 17 -9 17 -8 0 -13 -4 -10 -9 3 -5 -3 -11
-14 -14 -11 -3 -20 -10 -20 -17 0 -6 4 -9 9 -5 6 3 15 -5 22 -17 11 -21 11
-22 -4 -9 -10 7 -17 10 -17 6 0 -4 -6 -2 -13 4 -10 8 -19 6 -36 -10 -19 -18
-26 -19 -51 -9 -16 7 -34 9 -41 4 -9 -5 -10 -2 -5 11 7 18 6 18 -14 0 -11 -10
-18 -25 -15 -33 4 -10 0 -13 -14 -9 -18 4 -19 1 -14 -25 5 -23 2 -33 -12 -40
-13 -8 -14 -12 -5 -18 8 -5 -4 -22 -39 -55 -28 -26 -51 -55 -51 -64 0 -14 -2
-14 -11 -1 -8 12 -9 8 -7 -15 2 -25 -1 -31 -19 -33 -25 -4 -30 -21 -11 -40 6
-6 8 -15 4 -19 -4 -4 -11 -1 -16 7 -6 8 -10 11 -10 7 0 -4 -9 -3 -20 3 -19 10
-19 9 -8 -15 7 -16 17 -24 26 -20 9 3 12 0 9 -9 -3 -8 1 -17 9 -20 21 -8 17
-37 -6 -43 -16 -4 -18 -8 -9 -19 9 -11 6 -14 -15 -14 -14 0 -26 -4 -26 -9 0
-5 10 -7 22 -4 21 4 21 3 5 -7 -14 -9 -15 -15 -7 -25 8 -10 5 -14 -14 -19 -17
-4 -23 -11 -20 -21 4 -9 0 -15 -7 -15 -12 0 -12 -2 0 -9 9 -6 10 -11 3 -15 -6
-4 -8 -14 -5 -23 6 -15 5 -16 -9 -3 -8 8 -13 22 -10 30 4 11 1 11 -12 -3 -10
-9 -22 -15 -27 -12 -5 4 -9 -1 -9 -10 0 -14 6 -16 27 -11 l28 7 -25 -21 c-17
-15 -21 -23 -12 -27 6 -2 12 -9 12 -14 0 -6 -4 -8 -9 -5 -5 3 -14 -1 -21 -9
-9 -11 -15 -12 -25 -2 -7 7 -11 15 -9 19 2 4 0 9 -5 13 -6 3 -15 -4 -21 -15
-9 -17 -8 -20 12 -21 18 -1 19 -2 5 -6 -11 -3 -16 -11 -13 -19 3 -8 1 -14 -4
-14 -21 0 -8 -18 17 -25 19 -5 23 -9 13 -13 -8 -3 -18 -9 -21 -15 -4 -5 -13
-6 -20 -1 -8 5 -22 7 -32 6 -9 -2 -17 2 -17 7 0 6 -5 11 -11 11 -8 0 -8 -5 1
-15 7 -8 22 -15 34 -15 12 0 16 -3 10 -8 -6 -4 -14 -20 -18 -35 -4 -15 -11
-25 -15 -22 -5 3 -11 0 -13 -6 -2 -6 -25 -12 -52 -14 -48 -4 -77 -15 -38 -15
l20 0 -21 -39 c-12 -22 -24 -36 -27 -32 -11 18 -35 -6 -38 -38 -2 -29 0 -32
13 -21 17 14 20 3 5 -20 -9 -13 -11 -13 -19 -1 -5 8 -19 16 -30 18 -18 2 -20
-1 -15 -26 6 -27 4 -29 -15 -24 -26 7 -38 23 -17 23 9 0 16 5 16 10 0 16 -30
12 -36 -5 -4 -8 -12 -15 -20 -15 -8 0 -14 -5 -14 -11 0 -6 9 -8 20 -4 19 6 20
3 14 -22 -9 -37 -13 -41 -27 -23 -13 17 -47 23 -47 9 0 -8 15 -13 33 -10 10 1
9 -17 -2 -23 -13 -9 -1 -46 15 -46 8 0 14 -4 14 -10 0 -6 -9 -6 -22 -1 -13 5
-22 16 -20 25 3 17 2 18 -41 20 -27 2 -36 -7 -17 -19 6 -4 8 -11 5 -16 -3 -5
1 -6 9 -3 9 3 14 10 11 14 -3 5 -1 11 4 14 10 7 21 -28 12 -40 -8 -12 -73 -16
-66 -4 3 4 -2 11 -10 14 -13 4 -14 2 -5 -14 6 -11 7 -20 3 -20 -4 0 -1 -6 5
-12 10 -10 15 -10 22 2 8 12 10 12 10 1 0 -11 3 -11 15 -1 10 9 15 9 15 1 0
-6 -5 -11 -11 -11 -5 0 -7 -4 -4 -10 3 -5 1 -10 -4 -10 -6 0 -11 6 -11 13 0 7
-3 8 -8 2 -4 -5 -20 -11 -35 -12 -22 -1 -27 2 -23 12 3 8 1 15 -4 15 -6 0 -10
-5 -10 -11 0 -6 -7 -9 -15 -5 -8 3 -15 2 -15 -3 0 -4 -19 -14 -41 -21 -33 -11
-38 -15 -23 -21 11 -4 17 -8 14 -9 -27 -8 -46 -7 -52 3 -5 8 -8 6 -8 -5 0 -11
-8 -18 -20 -18 -11 0 -20 5 -20 10 0 6 -5 10 -11 10 -6 0 -9 -8 -7 -17 2 -10
11 -17 20 -17 11 1 14 -5 10 -18 -3 -14 -7 -16 -12 -8 -4 7 -13 10 -19 6 -7
-5 -9 -1 -5 8 4 9 1 16 -6 16 -7 0 -10 7 -7 14 4 10 1 13 -9 9 -16 -6 -19 -33
-4 -33 6 0 5 -8 -2 -19 -10 -17 -13 -17 -23 -5 -14 19 -48 7 -40 -13 4 -12 0
-14 -20 -9 -14 4 -25 2 -25 -3 0 -5 9 -11 20 -14 11 -3 20 -11 20 -19 0 -8 -3
-9 -8 -2 -11 17 -39 23 -50 12 -8 -8 -5 -17 12 -33 17 -15 21 -27 15 -36 -7
-11 -9 -10 -9 4 0 11 -5 17 -12 14 -7 -2 -12 -12 -12 -21 1 -10 -6 -16 -20
-16 -15 0 -17 3 -7 9 9 6 5 9 -13 9 -14 0 -26 -4 -26 -9 0 -5 5 -9 10 -9 6 0
10 -8 10 -17 0 -14 -4 -12 -25 7 -14 13 -25 18 -25 12 0 -7 5 -12 10 -12 6 0
10 -5 10 -10 0 -6 -6 -10 -13 -8 -6 1 -22 -3 -35 -10 -12 -7 -27 -10 -33 -7
-5 4 -16 1 -24 -5 -12 -10 -15 -10 -15 1 0 9 -3 10 -8 3 -10 -15 -53 -38 -75
-40 -10 -1 -30 -7 -43 -15 -21 -11 -27 -11 -34 1 -7 12 -10 12 -16 -3 -3 -9
-10 -17 -15 -17 -4 0 -6 7 -3 15 4 9 0 15 -7 15 -11 0 -11 2 1 9 8 6 18 7 22
5 12 -8 9 11 -4 24 -9 9 -8 12 4 12 9 0 20 5 24 12 4 6 3 8 -4 4 -5 -3 -12 -1
-14 6 -3 7 -12 3 -25 -12 -13 -13 -28 -20 -37 -17 -10 4 -16 1 -16 -8 0 -7 -5
-17 -12 -21 -7 -4 -8 -3 -4 4 4 7 2 12 -3 12 -6 0 -11 -4 -11 -9 0 -23 -82
-14 -101 12 -3 4 -13 5 -22 1 -15 -5 -15 -8 -1 -21 8 -8 21 -12 29 -9 8 3 17
1 20 -4 4 -6 1 -10 -6 -10 -9 0 -9 -3 1 -14 10 -13 7 -13 -19 -3 -22 8 -34 8
-42 0 -8 -8 -8 -13 0 -17 6 -4 11 -2 11 3 0 6 7 11 17 11 15 0 15 -1 0 -18 -9
-10 -29 -17 -44 -16 l-28 1 -3 214 c-1 118 -4 232 -5 254 -2 22 -4 -298 -5
-711 -2 -780 4 -927 44 -1117 96 -459 362 -868 746 -1149 224 -164 498 -280
805 -340 l118 -23 2605 0 c2485 0 2609 1 2700 18 220 43 343 83 535 175 246
119 478 306 655 528 206 259 342 585 395 948 14 98 16 373 15 2626 0 1637 -4
2547 -10 2601 -54 446 -231 825 -524 1123 -198 202 -302 278 -531 390 -186 90
-267 119 -420 151 -244 50 -212 48 -775 50 -361 0 -390 0 -90 -2z m520 -88 c0
-5 -5 -3 -10 5 -5 8 -10 20 -10 25 0 6 5 3 10 -5 5 -8 10 -19 10 -25z m77 5
c-2 -30 -12 -36 -35 -22 -17 11 -4 42 14 35 8 -3 14 0 14 6 0 6 2 11 5 11 2 0
3 -13 2 -30z m107 -135 c3 -8 1 -15 -4 -15 -6 0 -10 7 -10 15 0 8 2 15 4 15 2
0 6 -7 10 -15z m19 -62 c-5 -12 -7 -12 -14 -1 -13 20 -11 28 5 22 8 -3 12 -12
9 -21z m982 -2261 c-3 -3 -11 0 -18 7 -9 10 -8 11 6 5 10 -3 15 -9 12 -12z
m-424 -5 c-7 -7 -14 -8 -21 -1 -6 6 -2 10 12 11 16 2 18 -1 9 -10z m239 -47
c0 -5 -4 -10 -10 -10 -5 0 -10 5 -10 10 0 6 5 10 10 10 6 0 10 -4 10 -10z
m115 0 c3 -5 1 -10 -4 -10 -6 0 -11 5 -11 10 0 6 2 10 4 10 3 0 8 -4 11 -10z
m-340 -10 c-3 -5 -10 -10 -16 -10 -5 0 -9 5 -9 10 0 6 7 10 16 10 8 0 12 -4 9
-10z m300 0 c-3 -5 -11 -10 -16 -10 -6 0 -7 5 -4 10 3 6 11 10 16 10 6 0 7 -4
4 -10z m-336 -31 c3 -11 1 -12 -11 -2 -8 7 -19 9 -23 5 -5 -4 -5 -1 -1 6 9 16
28 11 35 -9z m-369 -79 c0 -5 -2 -10 -4 -10 -3 0 -8 5 -11 10 -3 6 -1 10 4 10
6 0 11 -4 11 -10z m-37 -15 c-3 -9 -8 -14 -10 -11 -3 3 -2 9 2 15 9 16 15 13
8 -4z m465 -27 c13 -13 17 -57 5 -59 -47 -8 -58 -3 -61 25 -5 40 29 61 56 34z
m-490 -85 c-2 -20 -10 -29 -31 -34 -24 -6 -30 -4 -39 16 -13 30 -5 53 24 64
29 11 50 -10 46 -46z m300 6 c3 -28 -16 -43 -43 -33 -18 7 -20 50 -2 57 25 11
42 1 45 -24z m297 21 c10 -17 -4 -48 -25 -53 -23 -6 -52 27 -43 49 6 16 59 19
68 4z m-1295 -122 c0 -4 -4 -8 -9 -8 -6 0 -12 4 -15 8 -3 5 1 9 9 9 8 0 15 -4
15 -9z m1038 -80 c7 -7 12 -22 12 -35 0 -28 -36 -46 -62 -31 -34 17 -16 78 22
78 9 0 21 -5 28 -12z m-308 -13 c10 -12 10 -21 2 -40 -7 -14 -16 -25 -21 -25
-5 0 -16 -7 -25 -15 -13 -13 -16 -13 -32 2 -9 10 -12 19 -6 21 5 1 8 12 5 23
-11 41 49 68 77 34z m-685 -5 c3 -6 -1 -7 -9 -4 -9 3 -16 1 -16 -5 0 -6 -5
-11 -11 -11 -8 0 -8 5 1 15 14 17 26 19 35 5z m58 -12 c-2 -5 -10 -8 -18 -8
-8 0 -16 3 -18 8 -3 4 5 7 18 7 13 0 21 -3 18 -7z m711 -154 c3 -9 6 -22 6
-30 0 -9 19 -37 43 -65 34 -40 48 -49 75 -49 17 0 32 5 32 10 0 6 11 16 25 22
21 9 28 8 45 -7 23 -21 25 -34 9 -69 -18 -39 -40 -41 -67 -6 -30 38 -55 38
-84 -1 -13 -17 -35 -37 -50 -45 -21 -11 -28 -22 -28 -44 0 -45 -19 -46 -26 0
-4 27 -14 44 -28 52 -11 6 -31 23 -44 39 -16 20 -33 29 -53 29 -43 0 -35 16
11 24 25 4 40 12 40 20 0 8 11 23 24 34 13 10 29 37 36 60 11 44 24 53 34 26z
m-904 -44 c0 -5 -5 -10 -11 -10 -5 0 -7 5 -4 10 3 6 8 10 11 10 2 0 4 -4 4
-10z m-15 -29 c3 -5 1 -12 -5 -16 -5 -3 -10 1 -10 9 0 18 6 21 15 7z m1369
-286 c13 -34 -24 -66 -50 -44 -15 12 -19 41 -7 52 12 13 51 7 57 -8z m-2008
-62 c-10 -10 -19 5 -10 18 6 11 8 11 12 0 2 -7 1 -15 -2 -18z m1892 -76 c-5
-37 -67 -33 -68 5 0 4 7 14 16 22 21 22 56 3 52 -27z m-280 -35 c3 -16 -2 -22
-17 -22 -24 0 -35 15 -27 36 9 23 40 13 44 -14z m-2048 -32 c0 -5 -5 -10 -11
-10 -5 0 -7 5 -4 10 3 6 8 10 11 10 2 0 4 -4 4 -10z m2200 -155 c0 -15 -7 -26
-20 -30 -41 -13 -70 43 -33 64 25 13 53 -5 53 -34z m-296 10 c8 -21 -3 -43
-25 -50 -27 -9 -39 2 -39 36 0 25 4 29 29 29 16 0 31 -6 35 -15z m-816 -172
c-4 -22 -22 -20 -26 1 -2 10 3 16 13 16 10 0 15 -7 13 -17z m-4104 -26 c15
-23 -3 -51 -37 -55 -31 -4 -47 21 -40 59 4 23 8 25 35 20 17 -4 36 -14 42 -24z
m5174 10 c4 -20 -25 -34 -40 -19 -15 15 -1 44 19 40 10 -2 19 -11 21 -21z
m-528 -13 c0 -21 64 -80 98 -90 l27 -8 -31 -4 c-20 -2 -36 -11 -44 -27 -7 -13
-21 -26 -31 -28 -13 -3 -19 -15 -20 -34 l-1 -28 -12 27 c-6 15 -22 37 -34 48
-12 12 -22 25 -22 30 0 4 -12 13 -27 18 -24 9 -25 11 -6 11 27 1 83 56 83 82
0 10 5 19 10 19 6 0 10 -7 10 -16z m-4975 -154 c-3 -5 -11 -10 -16 -10 -6 0
-7 5 -4 10 3 6 11 10 16 10 6 0 7 -4 4 -10z m5185 0 c0 -5 -4 -10 -10 -10 -5
0 -10 5 -10 10 0 6 5 10 10 10 6 0 10 -4 10 -10z m-32 -63 c4 -22 -27 -35 -38
-16 -10 15 7 42 24 36 6 -2 12 -11 14 -20z m-5168 3 c0 -5 -7 -10 -16 -10 -8
0 -12 5 -9 10 3 6 10 10 16 10 5 0 9 -4 9 -10z m170 -37 c1 -46 82 -123 129
-123 36 0 23 -17 -20 -26 -28 -6 -44 -16 -49 -29 -7 -17 -3 -21 18 -23 39 -3
57 -25 43 -51 -12 -22 -61 -30 -61 -10 0 13 -25 39 -39 39 -5 0 -13 -16 -17
-35 -7 -40 -23 -56 -25 -26 -2 34 -3 35 -27 61 -13 14 -30 37 -38 53 -13 23
-21 27 -59 27 -45 0 -60 12 -29 24 9 3 26 6 38 6 31 0 102 70 111 109 8 38 25
41 25 4z m-207 -13 c3 -13 0 -20 -9 -20 -8 0 -17 0 -21 0 -12 0 -10 24 2 32
16 12 22 9 28 -12z m4267 -40 c0 -23 -28 -34 -46 -19 -19 16 -17 36 3 48 21
11 43 -3 43 -29z m1194 21 c9 -14 -4 -41 -19 -41 -15 0 -24 19 -17 38 5 14 28
16 36 3z m-189 -10 c3 -5 -2 -17 -11 -26 -19 -19 -40 -6 -31 19 7 17 32 21 42
7z m-1 -112 c-8 -14 -34 -11 -34 4 0 8 3 17 7 20 9 9 34 -13 27 -24z m-3976
-53 c4 -18 -21 -46 -40 -46 -4 0 -12 9 -18 21 -9 15 -8 24 1 35 17 20 53 14
57 -10z m3638 13 c3 -6 0 -17 -8 -25 -13 -13 -16 -13 -28 1 -12 14 -11 18 1
26 19 12 26 11 35 -2z m-46 -54 c0 -8 -7 -15 -15 -15 -16 0 -20 12 -8 23 11
12 23 8 23 -8z m-190 -115 c-35 -31 -36 -31 -80 10 -15 14 -14 18 14 51 l31
36 34 -34 33 -34 -32 -29z m-3205 -25 c0 -13 -8 -21 -22 -23 -17 -3 -23 2 -23
16 0 10 3 22 7 26 13 13 38 1 38 -19z m-436 -3 c20 -38 -31 -71 -59 -37 -6 8
-9 23 -5 35 8 25 51 27 64 2z m4201 3 c17 -21 5 -45 -24 -45 -29 0 -40 24 -20
45 19 19 28 19 44 0z m-5461 -56 c-8 -5 -21 -9 -29 -9 -10 1 -7 7 10 21 17 14
26 17 28 9 3 -7 -2 -16 -9 -21z m1036 6 c0 -13 -8 -21 -22 -23 -17 -3 -23 2
-23 16 0 10 3 22 7 26 13 13 38 1 38 -19z m3413 -28 c4 -20 -25 -34 -40 -19
-15 15 -1 44 19 40 10 -2 19 -11 21 -21z m-3760 4 c21 -13 11 -55 -15 -59 -28
-4 -50 32 -32 54 13 16 28 18 47 5z m952 -73 c0 -18 5 -28 14 -28 8 0 25 -14
39 -31 17 -22 35 -32 63 -36 37 -5 44 -2 87 42 26 25 47 40 47 33 0 -20 53
-68 76 -69 16 0 16 -2 -5 -12 -29 -14 -71 -54 -71 -67 0 -6 -4 -10 -10 -10 -5
0 -10 7 -10 16 0 9 -9 18 -19 21 -11 3 -22 11 -25 19 -3 9 -21 14 -50 14 -39
0 -50 -5 -89 -44 -30 -28 -50 -58 -57 -85 -8 -30 -16 -41 -30 -41 -11 0 -20 7
-20 15 0 8 -9 15 -19 15 -11 0 -21 6 -24 13 -7 20 4 37 24 37 13 0 19 -7 19
-24 0 -21 21 -41 32 -30 12 11 -6 67 -24 72 -10 2 -25 17 -34 33 -8 17 -23 29
-33 29 -11 0 -27 3 -36 6 -22 9 0 24 36 24 18 0 29 8 37 25 6 14 16 25 21 25
20 0 41 33 41 63 0 24 3 28 10 17 5 -8 10 -27 10 -42z m-762 5 c-4 -34 -33
-43 -43 -14 -8 27 1 41 26 41 16 0 20 -6 17 -27z m97 17 c4 -6 15 -8 25 -5 22
7 37 -12 22 -27 -8 -8 -15 -8 -25 1 -12 9 -16 8 -21 -4 -6 -18 -27 -20 -44 -3
-7 7 -8 17 -1 30 11 20 34 24 44 8z m3335 -5 c0 -17 67 -87 96 -100 17 -8 16
-9 -8 -13 -16 -2 -30 -11 -33 -23 -4 -11 -17 -27 -31 -35 -14 -10 -24 -26 -24
-40 0 -12 -4 -26 -10 -29 -6 -4 -10 6 -10 24 0 22 -8 35 -30 51 -16 12 -30 27
-30 34 0 8 -15 17 -32 21 l-33 8 28 4 c15 3 34 15 43 28 9 13 24 27 35 30 12
4 19 16 19 31 0 13 5 24 10 24 6 0 10 -7 10 -15z m-4335 -24 c-3 -6 -11 -11
-17 -11 -6 0 -6 6 2 15 14 17 26 13 15 -4z m-40 -1 c-3 -5 -12 -10 -18 -10 -7
0 -6 4 3 10 19 12 23 12 15 0z m1530 -10 c0 -8 -8 -16 -17 -18 -13 -2 -18 3
-18 18 0 15 5 20 18 18 9 -2 17 -10 17 -18z m666 -3 c-1 -12 -15 -9 -19 4 -3
6 1 10 8 8 6 -3 11 -8 11 -12z m99 -2 c15 -18 5 -35 -21 -35 -12 0 -19 7 -19
18 0 33 20 42 40 17z m-2366 -58 c10 -9 10 -15 2 -23 -14 -13 -41 10 -31 26 8
13 14 13 29 -3z m1535 -1 c15 -18 3 -46 -20 -46 -25 0 -35 26 -19 45 15 19 24
19 39 1z m3506 -27 c0 -17 -6 -24 -20 -24 -23 0 -33 34 -13 46 20 13 33 5 33
-22z m195 5 c11 -12 10 -18 -3 -32 -16 -15 -18 -15 -34 0 -13 14 -14 20 -3 32
7 9 16 16 20 16 4 0 13 -7 20 -16z m-2832 -95 c-36 -35 -36 -35 -65 -7 -30 28
-29 42 4 72 l27 26 33 -32 32 -31 -31 -28z m-2459 43 c-13 -21 -70 -25 -76 -5
-2 6 7 10 22 9 14 0 25 -5 25 -9 0 -5 5 -5 10 -2 6 3 10 16 10 28 0 15 3 18
11 10 8 -8 7 -16 -2 -31z m4789 6 c3 -22 -2 -29 -22 -34 -32 -8 -46 1 -46 30
0 30 9 38 40 34 19 -2 26 -10 28 -30z m-4748 12 c0 -5 -2 -10 -4 -10 -3 0 -8
5 -11 10 -3 6 -1 10 4 10 6 0 11 -4 11 -10z m2728 -37 c3 -21 -22 -38 -39 -27
-13 8 -11 42 4 47 20 9 32 2 35 -20z m462 12 c0 -8 -6 -15 -14 -15 -17 0 -28
14 -19 24 12 12 33 6 33 -9z m1105 -55 c0 -18 -6 -26 -21 -28 -23 -3 -37 18
-27 44 10 25 48 13 48 -16z m-2767 -2 c-2 -13 -10 -23 -18 -23 -8 0 -16 10
-18 23 -3 17 2 22 18 22 16 0 21 -5 18 -22z m-1603 2 c-3 -5 -12 -10 -18 -10
-7 0 -6 4 3 10 19 12 23 12 15 0z m2625 -20 c0 -5 -4 -10 -10 -10 -5 0 -10 5
-10 10 0 6 5 10 10 10 6 0 10 -4 10 -10z m1318 -27 c5 -17 -26 -29 -40 -15 -6
6 -7 15 -3 22 9 14 37 9 43 -7z m152 -18 c0 -25 -23 -35 -35 -15 -10 16 2 40
20 40 9 0 15 -9 15 -25z m-1405 -5 c0 -22 -29 -18 -33 3 -3 14 1 18 15 15 10
-2 18 -10 18 -18z m295 0 c0 -21 -24 -28 -35 -10 -8 14 3 30 21 30 8 0 14 -9
14 -20z m214 3 c8 -20 -19 -44 -40 -36 -14 5 -19 35 -7 46 12 13 41 7 47 -10z
m-1814 -48 c0 -18 -5 -25 -19 -25 -11 0 -23 5 -26 10 -11 18 3 40 25 40 15 0
20 -7 20 -25z m3123 10 c1 -5 -6 -11 -15 -13 -11 -2 -18 3 -18 13 0 17 30 18
33 0z m-4666 -17 c-2 -22 -4 -22 -23 -4 -19 19 -18 25 5 23 12 -1 19 -8 18
-19z m37 13 c3 -5 -1 -11 -9 -14 -9 -4 -12 -1 -8 9 6 16 10 17 17 5z m2861
-26 c0 -30 -39 -27 -43 3 -3 20 0 23 20 20 15 -2 23 -10 23 -23z m1862 -21
c-9 -9 -28 6 -21 18 4 6 10 6 17 -1 6 -6 8 -13 4 -17z m-2164 -35 c4 -3 -6
-21 -23 -39 l-31 -33 -32 29 c-17 16 -33 30 -35 31 -2 1 11 15 30 32 l33 30
25 -22 c14 -12 29 -24 33 -28z m1597 31 c0 -13 -7 -20 -20 -20 -19 0 -27 20
-13 33 13 14 33 6 33 -13z m609 -14 c9 -10 7 -16 -5 -27 -13 -10 -17 -10 -24
1 -9 14 -3 40 10 40 4 0 13 -6 19 -14z m-2059 -34 c-1 -18 -19 -34 -36 -30
-22 4 -31 37 -13 49 13 8 49 -6 49 -19z m2583 22 c9 -10 -4 -34 -18 -34 -17 0
-28 17 -20 30 7 11 28 13 38 4z m-905 -57 c4 -20 -25 -34 -40 -19 -15 15 -1
44 19 40 10 -2 19 -11 21 -21z m-4614 7 c18 -7 12 -24 -10 -24 -8 0 -14 7 -14
15 0 17 2 18 24 9z m2131 -4 c4 -6 1 -17 -5 -26 -10 -11 -16 -12 -26 -3 -11 9
-11 15 -3 25 14 17 25 18 34 4z m3135 -4 c0 -19 -27 -28 -33 -11 -7 15 1 25
20 25 7 0 13 -6 13 -14z m-1753 -22 c8 -21 -13 -42 -28 -27 -13 13 -5 43 11
43 6 0 13 -7 17 -16z m1460 -10 c8 -21 -13 -42 -28 -27 -13 13 -5 43 11 43 6
0 13 -7 17 -16z m-257 -9 c19 -23 8 -50 -20 -50 -19 0 -26 6 -28 24 -5 35 26
53 48 26z m-2686 -4 c10 -16 -6 -42 -23 -39 -9 2 -17 13 -19 26 -3 16 2 22 17
22 11 0 22 -4 25 -9z m329 -83 c-33 -35 -38 -35 -67 -1 l-24 28 27 31 26 31
32 -30 33 -31 -27 -28z m2761 61 c-8 -14 -34 -11 -34 4 0 8 3 17 7 20 9 9 34
-13 27 -24z m-5244 7 c0 -3 -4 -8 -10 -11 -5 -3 -10 -1 -10 4 0 6 5 11 10 11
6 0 10 -2 10 -4z m3773 -32 c-3 -8 -12 -14 -19 -14 -20 0 -30 30 -13 40 17 11
40 -7 32 -26z m1637 -5 c0 -12 -7 -19 -20 -19 -22 0 -29 35 -7 43 18 6 27 -2
27 -24z m-2255 -4 c0 -10 -5 -20 -11 -22 -13 -4 -27 24 -18 38 9 15 29 4 29
-16z m2008 13 c7 -21 -4 -38 -23 -38 -23 0 -34 16 -26 35 7 18 43 20 49 3z
m-1666 -54 c3 -8 -2 -23 -11 -32 -15 -15 -17 -15 -32 0 -21 21 -11 48 16 48
11 0 23 -7 27 -16z m-801 -41 c-10 -10 -19 5 -10 18 6 11 8 11 12 0 2 -7 1
-15 -2 -18z m108 -22 c9 -14 -4 -41 -19 -41 -18 0 -28 17 -21 35 6 17 32 20
40 6z m1091 -26 c0 -22 -31 -33 -47 -17 -17 17 -1 44 24 40 15 -2 23 -10 23
-23z m308 13 c7 -21 -4 -38 -23 -38 -23 0 -32 13 -24 34 7 19 40 21 47 4z
m-163 -19 c0 -5 -7 -9 -15 -9 -15 0 -20 12 -9 23 8 8 24 -1 24 -14z m-4295
-19 c3 -5 2 -10 -4 -10 -5 0 -13 5 -16 10 -3 6 -2 10 4 10 5 0 13 -4 16 -10z
m4799 -6 c7 -19 -10 -44 -31 -44 -17 0 -27 24 -19 45 7 20 42 19 50 -1z
m-4874 -14 c0 -5 -2 -10 -4 -10 -3 0 -8 5 -11 10 -3 6 -1 10 4 10 6 0 11 -4
11 -10z m2990 -26 c0 -17 -6 -24 -20 -24 -25 0 -36 25 -20 45 16 20 40 7 40
-21z m-3066 11 c-4 -8 -8 -15 -10 -15 -2 0 -4 7 -4 15 0 8 4 15 10 15 5 0 7
-7 4 -15z m-236 -2 c-10 -2 -18 -9 -18 -15 0 -6 -3 -9 -6 -5 -10 10 6 27 24
26 15 -1 15 -2 0 -6z m3760 -15 c-2 -15 -11 -24 -25 -26 -19 -3 -23 1 -23 22
0 21 5 26 26 26 21 0 25 -4 22 -22z m-3558 2 c0 -13 -12 -19 -26 -13 -8 3 -12
8 -9 12 5 10 35 10 35 1z m75 -8 c-3 -3 -11 0 -18 7 -9 10 -8 11 6 5 10 -3 15
-9 12 -12z m5088 -19 c9 -9 -13 -34 -24 -27 -14 8 -11 34 4 34 8 0 17 -3 20
-7z m-5388 -13 c3 -5 1 -10 -4 -10 -6 0 -11 5 -11 10 0 6 2 10 4 10 3 0 8 -4
11 -10z m5005 -40 c0 -13 -7 -20 -20 -20 -13 0 -20 7 -20 20 0 13 7 20 20 20
13 0 20 -7 20 -20z m-560 -60 c45 0 53 -9 115 -125 27 -49 80 -146 120 -215
39 -69 98 -173 131 -232 32 -60 61 -108 64 -108 5 0 164 276 306 531 63 114
81 153 76 174 -4 22 -2 26 14 23 12 -2 19 -12 19 -28 l0 -25 188 -1 c102 0
189 -3 192 -6 6 -6 -56 -117 -273 -488 -85 -145 -192 -331 -238 -412 l-84
-147 0 -99 c0 -54 -3 -187 -7 -295 l-6 -197 -189 0 -188 0 0 291 0 290 -46 76
c-43 72 -225 385 -456 787 -59 103 -108 192 -108 197 0 5 13 9 29 9 24 0 28 3
24 24 -6 30 14 43 35 23 13 -13 13 -19 2 -31 -11 -14 -4 -16 66 -16 77 0 80 1
109 33 l30 33 19 -33 c17 -28 26 -33 56 -33z m-4659 33 c-8 -15 -10 -15 -11
-2 0 17 10 32 18 25 2 -3 -1 -13 -7 -23z m3746 -14 c140 -19 254 -69 370 -161
54 -42 123 -116 123 -131 0 -2 -54 -55 -120 -117 l-120 -112 -46 51 c-93 104
-257 156 -416 133 -246 -36 -395 -234 -392 -522 2 -169 50 -288 160 -391 99
-92 218 -128 358 -110 107 15 186 53 269 131 37 34 71 60 76 58 18 -6 241
-210 241 -220 0 -19 -126 -141 -191 -184 -152 -101 -255 -129 -474 -128 -155
0 -163 1 -255 32 -165 57 -281 135 -380 255 -127 156 -190 345 -190 570 0 195
42 337 146 494 177 267 495 400 841 352z m1151 -76 c-2 -10 -10 -18 -18 -18
-8 0 -16 8 -18 18 -2 12 3 17 18 17 15 0 20 -5 18 -17z m-4893 -23 c-3 -5 -11
-10 -16 -10 -6 0 -7 5 -4 10 3 6 11 10 16 10 6 0 7 -4 4 -10z m4822 -6 c8 -21
-13 -42 -28 -27 -13 13 -5 43 11 43 6 0 13 -7 17 -16z"/>
<path d="M7525 9300 c3 -5 8 -10 11 -10 2 0 4 5 4 10 0 6 -5 10 -11 10 -5 0
-7 -4 -4 -10z"/>
<path d="M7682 9226 c7 -8 17 -12 22 -9 4 3 2 9 -5 14 -22 13 -31 11 -17 -5z"/>
<path d="M5667 7974 c-54 -7 -104 -15 -110 -18 -11 -5 135 0 278 9 74 5 255
-11 360 -31 96 -19 276 -76 363 -115 66 -29 263 -145 322 -188 19 -14 41 -30
49 -36 36 -26 250 -245 280 -287 19 -27 38 -48 42 -48 4 0 11 -10 15 -22 17
-54 74 -115 74 -79 0 13 -80 130 -141 207 -132 166 -390 371 -573 454 -184 83
-433 153 -571 160 -145 8 -308 5 -388 -6z"/>
<path d="M5470 7940 c0 -5 14 -7 33 -3 45 8 47 13 4 13 -20 0 -37 -4 -37 -10z"/>
<path d="M5395 7920 l-20 -9 20 0 c11 0 29 4 40 9 l20 9 -20 0 c-11 0 -29 -4
-40 -9z"/>
<path d="M5315 7895 c-16 -8 -23 -14 -15 -14 8 0 29 6 45 14 17 7 23 13 15 13
-8 0 -28 -6 -45 -13z"/>
<path d="M5250 7870 c-13 -8 -13 -10 2 -10 9 0 20 5 23 10 8 13 -5 13 -25 0z"/>
<path d="M5188 7848 c-16 -5 -28 -13 -28 -18 0 -5 14 -3 30 3 17 6 30 15 30
19 0 4 -1 8 -2 7 -2 0 -15 -5 -30 -11z"/>
<path d="M5115 7810 c-3 -5 -1 -10 4 -10 6 0 11 5 11 10 0 6 -2 10 -4 10 -3 0
-8 -4 -11 -10z"/>
<path d="M4929 7705 c-53 -35 -99 -67 -103 -73 -3 -6 35 17 85 49 50 33 100
64 111 68 12 4 17 10 12 13 -5 3 -52 -23 -105 -57z"/>
<path d="M4766 7585 c-22 -19 -35 -35 -30 -35 6 0 25 16 44 35 43 44 36 44
-14 0z"/>
<path d="M4629 7453 c-41 -43 -90 -98 -108 -123 l-33 -45 37 40 c21 22 68 72
106 112 66 70 84 93 76 93 -2 0 -37 -35 -78 -77z"/>
<path d="M4302 7257 c53 -39 108 -67 89 -43 -12 14 -115 76 -127 76 -3 0 14
-15 38 -33z"/>
<path d="M4449 7233 c-13 -16 -12 -17 4 -4 9 7 17 15 17 17 0 8 -8 3 -21 -13z"/>
<path d="M5857 7164 c-9 -10 2 -24 19 -24 8 0 30 -14 49 -31 32 -29 42 -32
112 -36 176 -9 356 -62 383 -112 8 -15 20 -21 45 -21 42 0 125 37 125 55 0 14
-9 13 -86 -7 -41 -10 -63 -3 -134 42 -16 10 -65 31 -115 48 -52 19 -127 28
-199 25 -38 -2 -72 -5 -74 -8 -3 -2 -26 13 -52 35 -47 40 -61 46 -73 34z"/>
<path d="M7360 7094 c0 -27 31 -84 46 -84 11 0 8 12 -11 50 -27 52 -35 61 -35
34z"/>
<path d="M8938 7073 c7 -3 16 -2 19 1 4 3 -2 6 -13 5 -11 0 -14 -3 -6 -6z"/>
<path d="M7636 7045 c4 -8 8 -15 10 -15 2 0 4 7 4 15 0 8 -4 15 -10 15 -5 0
-7 -7 -4 -15z"/>
<path d="M8840 7056 c0 -2 7 -9 15 -16 9 -7 15 -8 15 -2 0 5 -7 12 -15 16 -8
3 -15 4 -15 2z"/>
<path d="M7650 7012 c0 -4 4 -13 9 -20 7 -11 9 -11 14 1 3 9 -1 18 -9 21 -8 3
-14 2 -14 -2z"/>
<path d="M8500 7000 c0 -5 7 -7 15 -4 8 4 15 8 15 10 0 2 -7 4 -15 4 -8 0 -15
-4 -15 -10z"/>
<path d="M8730 7003 c0 -5 14 -8 31 -9 20 -1 26 2 17 7 -16 11 -48 12 -48 2z"/>
<path d="M8607 6963 c4 -10 0 -11 -21 -3 -21 7 -26 7 -26 -5 0 -17 32 -20 61
-5 24 14 25 29 0 27 -11 -1 -17 -6 -14 -14z"/>
<path d="M8035 6950 c3 -5 11 -10 16 -10 6 0 7 5 4 10 -3 6 -11 10 -16 10 -6
0 -7 -4 -4 -10z"/>
<path d="M5951 6934 c0 -11 -15 -33 -32 -50 -27 -25 -29 -33 -23 -64 4 -19 10
-69 14 -110 l7 -75 1 92 c2 67 8 107 22 144 12 29 19 59 17 68 -3 11 -5 10 -6
-5z"/>
<path d="M7680 6937 c0 -9 5 -17 11 -17 5 0 7 -5 3 -12 -4 -7 -3 -8 5 -4 9 6
9 12 -1 24 -7 10 -14 19 -15 21 -2 2 -3 -3 -3 -12z"/>
<path d="M8200 6939 c0 -5 5 -7 10 -4 6 3 10 8 10 11 0 2 -4 4 -10 4 -5 0 -10
-5 -10 -11z"/>
<path d="M8643 6934 c-19 -20 -16 -23 18 -17 16 2 37 -1 45 -8 17 -14 19 -2 1
15 -7 7 -18 11 -26 8 -7 -2 -16 0 -20 6 -4 6 -11 5 -18 -4z"/>
<path d="M7986 6932 c-3 -5 1 -9 9 -9 8 0 12 4 9 9 -3 4 -7 8 -9 8 -2 0 -6 -4
-9 -8z"/>
<path d="M8263 6915 c0 -8 4 -12 9 -9 5 3 6 10 3 15 -9 13 -12 11 -12 -6z"/>
<path d="M6598 6903 c7 -3 16 -2 19 1 4 3 -2 6 -13 5 -11 0 -14 -3 -6 -6z"/>
<path d="M6638 6903 c7 -3 16 -2 19 1 4 3 -2 6 -13 5 -11 0 -14 -3 -6 -6z"/>
<path d="M8680 6889 c0 -5 5 -7 10 -4 6 3 10 8 10 11 0 2 -4 4 -10 4 -5 0 -10
-5 -10 -11z"/>
<path d="M7937 6883 c-4 -3 -7 -11 -7 -17 0 -6 5 -5 12 2 6 6 9 14 7 17 -3 3
-9 2 -12 -2z"/>
<path d="M5120 6754 c0 -21 31 -50 104 -93 46 -28 86 -51 89 -51 3 0 26 -13
50 -30 25 -16 48 -30 52 -30 7 0 70 -46 92 -67 7 -6 37 -25 67 -43 65 -37 152
-129 176 -185 9 -22 22 -66 29 -97 14 -67 29 -82 63 -69 36 14 55 50 62 117
15 158 16 162 47 174 24 11 48 44 37 55 -2 2 -23 -2 -47 -8 l-43 -12 6 -45 c5
-41 3 -49 -19 -68 -21 -18 -23 -26 -15 -47 14 -37 12 -81 -3 -94 -8 -6 -27
-14 -44 -17 -30 -6 -30 -5 -36 43 -7 64 -49 154 -93 203 -31 34 -211 160 -229
160 -3 0 -26 14 -50 30 -24 17 -48 30 -54 30 -6 0 -11 5 -11 10 0 6 -5 10 -12
10 -6 0 -19 6 -27 14 -23 19 -191 117 -191 110z"/>
<path d="M6276 6672 c-5 -15 0 -34 13 -56 14 -22 21 -51 22 -87 l1 -54 13 60
c19 82 18 85 -14 124 -27 33 -29 34 -35 13z"/>
<path d="M7335 6540 c-3 -5 -1 -10 4 -10 6 0 11 5 11 10 0 6 -2 10 -4 10 -3 0
-8 -4 -11 -10z"/>
<path d="M7410 6543 c0 -5 5 -15 10 -23 8 -12 10 -11 10 8 0 12 -4 22 -10 22
-5 0 -10 -3 -10 -7z"/>
<path d="M7290 6500 c0 -5 5 -10 10 -10 6 0 10 5 10 10 0 6 -4 10 -10 10 -5 0
-10 -4 -10 -10z"/>
<path d="M7374 6494 c3 -9 6 -18 6 -20 0 -3 4 -3 10 1 11 7 2 35 -12 35 -6 0
-7 -7 -4 -16z"/>
<path d="M7327 6463 c-6 -10 19 -34 26 -26 8 7 -3 33 -13 33 -5 0 -11 -3 -13
-7z"/>
<path d="M6309 6440 c-4 -14 -16 -49 -28 -78 -12 -29 -17 -50 -11 -47 20 12
52 93 48 122 l-3 28 -6 -25z"/>
<path d="M6301 5814 c0 -11 3 -14 6 -6 3 7 2 16 -1 19 -3 4 -6 -2 -5 -13z"/>
<path d="M5579 5663 c-13 -16 -12 -17 4 -4 9 7 17 15 17 17 0 8 -8 3 -21 -13z"/>
<path d="M2730 5381 c0 -6 5 -13 10 -16 6 -3 10 1 10 9 0 9 -4 16 -10 16 -5 0
-10 -4 -10 -9z"/>
<path d="M2656 5222 c-4 -7 -5 -12 -2 -12 2 0 11 -3 20 -6 9 -3 16 -1 16 6 0
6 -4 9 -9 6 -5 -4 -11 -1 -13 6 -3 9 -6 9 -12 0z"/>
<path d="M2610 5183 c0 -5 5 -15 10 -23 8 -12 10 -11 10 8 0 12 -4 22 -10 22
-5 0 -10 -3 -10 -7z"/>
<path d="M2576 5142 c-2 -4 -1 -14 5 -22 7 -12 9 -10 9 8 0 23 -5 28 -14 14z"/>
<path d="M2495 4980 c-3 -5 -1 -10 4 -10 6 0 11 5 11 10 0 6 -2 10 -4 10 -3 0
-8 -4 -11 -10z"/>
<path d="M2536 4945 c5 -11 10 -13 19 -5 6 5 15 7 18 3 4 -3 7 -1 7 5 0 7 -11
12 -25 12 -18 0 -23 -4 -19 -15z"/>
<path d="M2493 4846 c0 -8 6 -12 14 -9 7 3 10 9 7 14 -8 14 -21 11 -21 -5z"/>
<path d="M2410 4816 c0 -10 4 -15 9 -12 5 4 12 0 14 -6 4 -8 6 -9 6 -2 1 6 -6
17 -14 24 -12 10 -15 9 -15 -4z"/>
<path d="M2313 4645 c-8 -9 -9 -16 -3 -20 6 -3 13 1 16 10 9 21 2 26 -13 10z"/>
<path d="M2256 4505 c-3 -8 -1 -15 4 -15 6 0 10 7 10 15 0 8 -2 15 -4 15 -2 0
-6 -7 -10 -15z"/>
<path d="M811 4484 c0 -11 3 -14 6 -6 3 7 2 16 -1 19 -3 4 -6 -2 -5 -13z"/>
<path d="M6259 4428 c-41 -9 -48 -13 -51 -39 -4 -26 -2 -29 25 -29 20 0 38 10
58 31 28 30 37 50 22 48 -5 -1 -29 -6 -54 -11z"/>
<path d="M2068 4353 c-10 -2 -18 -8 -18 -13 0 -4 9 -6 20 -3 11 3 20 9 20 14
0 5 -1 8 -2 8 -2 -1 -11 -3 -20 -6z"/>
<path d="M1925 4230 c-19 -8 -19 -9 3 -9 12 -1 22 4 22 9 0 6 -1 10 -2 9 -2 0
-12 -4 -23 -9z"/>
<path d="M1585 4020 c-3 -5 -1 -10 4 -10 6 0 11 5 11 10 0 6 -2 10 -4 10 -3 0
-8 -4 -11 -10z"/>
<path d="M1170 3860 c0 -5 5 -10 10 -10 6 0 10 5 10 10 0 6 -4 10 -10 10 -5 0
-10 -4 -10 -10z"/>
<path d="M900 3816 c0 -2 7 -9 15 -16 13 -11 14 -10 9 4 -5 14 -24 23 -24 12z"/>
<path d="M1238 3803 c-32 -5 -37 -18 -9 -20 11 -1 25 5 32 13 6 8 10 13 8 13
-2 -1 -16 -4 -31 -6z"/>
<path d="M947 3785 c3 -8 9 -12 14 -9 12 7 11 11 -5 17 -10 4 -13 1 -9 -8z"/>
<path d="M1132 3773 c4 -22 24 -28 31 -9 4 11 1 13 -10 9 -11 -4 -14 -2 -9 5
4 7 2 12 -4 12 -6 0 -10 -8 -8 -17z"/>
</g>
</svg>
